<svg xmlns="http://www.w3.org/2000/svg" xmlns:xlink="http://www.w3.org/1999/xlink" viewBox="0 0 24 24"><defs><clipPath id="clip-path"><rect id="SVGID" width="24" height="24" fill="none"/></clipPath></defs><g style="isolation:isolate"><g id="Layer_1" data-name="Layer 1"><g clip-path="url(#clip-path)"><rect x="1" y="1" width="23" height="6" fill="#69768b" opacity="0.4"/><rect x="6" y="9" width="18" height="6" fill="#69768b" opacity="0.4"/><rect x="11" y="17" width="13" height="6" fill="#69768b" opacity="0.4"/><rect x="0.5" y="0.5" width="22" height="5" fill="#3b97d3"/><path d="M22,1V5H1V1H22m1-1H0V6H23V0Z" fill="#444546"/><g opacity="0.5"><rect x="1" y="3" width="21.01" height="2" fill="#3b97d3"/></g><rect x="5.5" y="8.5" width="17" height="5" fill="#efbb8a"/><path d="M22,9v4H6V9H22m1-1H5v6H23V8Z" fill="#444546"/><g opacity="0.5"><rect x="6.01" y="11" width="15.99" height="2" fill="#efbb8a"/></g><rect x="10.5" y="16.5" width="12" height="5" fill="#f4a69e"/><path d="M22,17v4H11V17H22m1-1H10v6H23V16Z" fill="#444546"/><g opacity="0.5"><rect x="11" y="19" width="11" height="2" fill="#f4a69e"/></g><polygon points="2.14 6 2.14 10.5 6 10.5 6 11.5 1 11.5 1 6 2.14 6" fill="#444546"/><polygon points="7.14 13 7.14 18.5 10.5 18.5 10.5 19.5 6 19.5 6 13 7.14 13" fill="#444546"/></g></g></g></svg>
