<svg xmlns="http://www.w3.org/2000/svg" xmlns:xlink="http://www.w3.org/1999/xlink" viewBox="0 0 24 24">
  <defs>
    <clipPath id="clip-path">
      <rect id="SVGID" width="24" height="24" fill="none"/>
    </clipPath>
    <clipPath id="clip-path-2">
      <rect id="SVGID-2" data-name="SVGID" x="11.52" y="5.52" width="9.06" height="9.06" fill="none"/>
    </clipPath>
  </defs>
  <g style="isolation:isolate">
    <g id="Layer_1" data-name="Layer 1">
      <g clip-path="url(#clip-path)">
        <path d="M22.5,4.8H13.59L10.05,1.5H2.7V5A1.61,1.61,0,0,0,1.2,6.5v16A1.5,1.5,0,0,0,2.7,24H19.8a1.49,1.49,0,0,0,1.5-1l1.44-4.67A1.4,1.4,0,0,0,24,16.8V6.3A1.5,1.5,0,0,0,22.5,4.8Z" fill="#69768b" opacity="0.4"/>
        <g id="_Group_" data-name="&lt;Group&gt;">
          <path d="M1.5,22a1,1,0,0,1-1-1V6a1.12,1.12,0,0,1,1-1H6.15A1.15,1.15,0,0,1,7.3,6V9a1.33,1.33,0,0,0,1.25,1.4h10a1,1,0,0,1,1,1V21a1,1,0,0,1-1,1Z" fill="#efbb8a"/>
          <path d="M6.15,5.5A.67.67,0,0,1,6.8,6V9a1.83,1.83,0,0,0,1.75,1.9H18.6a.5.5,0,0,1,.5.5V21a.5.5,0,0,1-.5.5H1.5A.5.5,0,0,1,1,21V6a.65.65,0,0,1,.5-.5H6.15m0-1H1.5A1.61,1.61,0,0,0,0,6V21a1.5,1.5,0,0,0,1.5,1.5H18.6A1.5,1.5,0,0,0,20.1,21V11.4a1.5,1.5,0,0,0-1.5-1.5H8.55A.84.84,0,0,1,7.8,9V6A1.64,1.64,0,0,0,6.15,4.5Z" fill="#444546"/>
          <path d="M6.15,4.5H1.5A1.61,1.61,0,0,0,0,6V21a1.5,1.5,0,0,0,1.5,1.5H18.6A1.5,1.5,0,0,0,20.1,21V11.4a1.5,1.5,0,0,0-1.5-1.5h-10A.84.84,0,0,1,7.8,9V6A1.64,1.64,0,0,0,6.15,4.5Z" fill="#ce996e"/>
        </g>
        <g id="_Group_2" data-name="&lt;Group&gt;">
          <g id="_Group_3" data-name="&lt;Group&gt;">
            <polygon points="2.25 18.75 2.25 0.75 8.55 0.75 14.7 6.45 14.7 18.75 2.25 18.75" fill="#fff"/>
            <path d="M8.46,1l6,5.59V18.5H2.5V1h6m.39-1H1.5V19.5h14V6.15L8.85,0Z" fill="#444546"/>
            <g id="_Group_4" data-name="&lt;Group&gt;">
              <g id="_Group_5" data-name="&lt;Group&gt;">
                <g id="_Group_6" data-name="&lt;Group&gt;">
                  <g id="_Group_7" data-name="&lt;Group&gt;" opacity="0.15">
                    <path id="_Compound_Path_" data-name="&lt;Compound Path&gt;" d="M6.37,9h-.7V5.32H4.41v-.6H7.63v.6H6.37Z" fill="#8a9ca4"/>
                  </g>
                  <g id="_Group_8" data-name="&lt;Group&gt;">
                    <path id="_Compound_Path_2" data-name="&lt;Compound Path&gt;" d="M5.76,8.39h-.7V4.7H3.8V4.1H7v.6H5.76Z" fill="#3996d2"/>
                  </g>
                  <rect id="_Rectangle_" data-name="&lt;Rectangle&gt;" x="8.03" y="4.1" width="5.33" height="0.61" fill="#999ea4"/>
                  <rect id="_Rectangle_2" data-name="&lt;Rectangle&gt;" x="8.03" y="5.32" width="5.33" height="0.61" fill="#999ea4"/>
                  <rect id="_Rectangle_3" data-name="&lt;Rectangle&gt;" x="8.03" y="6.55" width="5.33" height="0.61" fill="#999ea4"/>
                  <rect id="_Rectangle_4" data-name="&lt;Rectangle&gt;" x="8.03" y="7.77" width="5.33" height="0.61" fill="#999ea4"/>
                  <rect id="_Rectangle_5" data-name="&lt;Rectangle&gt;" x="3.8" y="8.99" width="9.56" height="0.61" fill="#999ea4"/>
                  <rect id="_Rectangle_6" data-name="&lt;Rectangle&gt;" x="3.8" y="10.21" width="6.33" height="0.61" fill="#999ea4"/>
                </g>
              </g>
            </g>
          </g>
          <polygon id="_Path_" data-name="&lt;Path&gt;" points="8.57 7.26 8.57 9.36 13.8 7.26 8.57 7.26" fill="#8a9ca4" opacity="0.15" style="isolation:isolate"/>
          <path d="M9.57,2l4.54,4.23H9.57V2M8.85,0H8.57V7.26h6.88V6.15L8.85,0Z" fill="#444546"/>
          <polyline points="9.57 2.04 14.11 6.26 9.57 6.26 9.57 2.04" fill="#fff"/>
        </g>
        <rect id="SVGID-3" data-name="SVGID" x="9" y="3" width="15" height="15" fill="none"/>
        <rect id="SVGID-4" data-name="SVGID" x="9" y="3" width="15" height="15" fill="none"/>
        <g id="_Group_9" data-name="&lt;Group&gt;">
          <path d="M10.8,16.3a.92.92,0,0,1-1-1V4.8a.92.92,0,0,1,1-1H21.3a1,1,0,0,1,1,1V15.3a.92.92,0,0,1-1,1Z" fill="#fff"/>
          <path d="M21.3,4.3a.5.5,0,0,1,.5.5V15.3c0,.35-.15.5-.5.5H10.8c-.35,0-.5-.15-.5-.5V4.8c0-.35.15-.5.5-.5H21.3m0-1H10.8A1.42,1.42,0,0,0,9.3,4.8V15.3a1.42,1.42,0,0,0,1.5,1.5H21.3a1.42,1.42,0,0,0,1.5-1.5V4.8a1.5,1.5,0,0,0-1.5-1.5Z" fill="#444546"/>
        </g>
        <g clip-path="url(#clip-path-2)">
          <g id="_Group_10" data-name="&lt;Group&gt;">
            <g id="_Group_11" data-name="&lt;Group&gt;">
              <rect x="11.52" y="5.52" width="9.06" height="9.06" fill="#7dd2f6"/>
            </g>
            <path id="_Path_2" data-name="&lt;Path&gt;" d="M20.58,9.14c-2.17,0-2,2.36-4.53,2.36S13.88,10,11.52,10V14.4h9.06Z" fill="#31b24a"/>
            <path id="_Path_3" data-name="&lt;Path&gt;" d="M11.52,14c2.36,0,1.81-.91,4.53-.91,2.54,0,2.17-.73,4.53-.73v2.18H11.52Z" fill="#31b24a"/>
          </g>
          <path id="_Path_4" data-name="&lt;Path&gt;" d="M17.68,6.42a.67.67,0,0,0-.54.18A2.47,2.47,0,0,0,15,4.79a2.08,2.08,0,0,0-2,1.09,2.58,2.58,0,0,0-1.09-.36c-1.09,0-1.81.91-1.81,2.17v.36h9.06A1.6,1.6,0,0,0,17.68,6.42Z" fill="#fff"/>
        </g>
        <g id="_Group_12" data-name="&lt;Group&gt;">
          <path d="M2,22a1.07,1.07,0,0,1-.81-.37.86.86,0,0,1-.2-.7l2.41-7.81V13c0-.3.38-.55.85-.55H21a1.07,1.07,0,0,1,.81.37.86.86,0,0,1,.2.7L19.62,21.3a1,1,0,0,1-1,.7Z" fill="#efbb8a"/>
          <path d="M21,13a.57.57,0,0,1,.43.19.35.35,0,0,1,.09.25l-2.37,7.72v.05a.52.52,0,0,1-.53.29H1.95a.57.57,0,0,1-.43-.19.35.35,0,0,1-.09-.25l2.38-7.72,0-.14V13.1A.57.57,0,0,1,4.2,13H21m0-1H4.2a1.21,1.21,0,0,0-1.35,1.05l-2.4,7.8a1.46,1.46,0,0,0,1.5,1.65H18.6a1.49,1.49,0,0,0,1.5-1l2.4-7.8A1.46,1.46,0,0,0,21,12Z" fill="#444546"/>
          <g id="_Group_13" data-name="&lt;Group&gt;" opacity="0.3">
            <path d="M18.6,22.5H1.95a1.46,1.46,0,0,1-1.5-1.65l22.05-7.2-2.4,7.8A1.49,1.49,0,0,1,18.6,22.5Z" fill="#efbb8a"/>
          </g>
        </g>
      </g>
    </g>
  </g>
</svg>