<svg xmlns="http://www.w3.org/2000/svg" xmlns:xlink="http://www.w3.org/1999/xlink" viewBox="0 0 24 24"><defs><clipPath id="clip-path"><rect id="SVGID" width="24" height="24" fill="none"/></clipPath></defs><g style="isolation:isolate"><g id="Layer_1" data-name="Layer 1"><g clip-path="url(#clip-path)"><g id="_Group_" data-name="&lt;Group&gt;"><rect id="_Rectangle_" data-name="&lt;Rectangle&gt;" x="1.2" y="9.01" width="22.8" height="8" fill="#69768b" opacity="0.4"/><g id="_Rectangle_2" data-name="&lt;Rectangle&gt;"><rect x="0.5" y="8.5" width="21.8" height="7" fill="#fff"/><path d="M21.8,9v6H1V9H21.8m1-1H0v8H22.8V8Z" fill="#3b97d3"/></g></g><path d="M23.23,3.79a2.62,2.62,0,0,0-3.71,0L6.89,16.43v3.71h3.71L23.23,7.5A2.62,2.62,0,0,0,23.23,3.79Z" fill="#69768b" opacity="0.4"/><polygon points="6.54 18.62 6.54 15.62 16.53 5.63 19.53 8.63 9.54 18.62 6.54 18.62" fill="#eb802d" stroke="#444546" stroke-miterlimit="10"/><rect x="5.74" y="10.4" width="14.13" height="1.62" transform="translate(-4.17 12.34) rotate(-45)" fill="#fff" opacity="0.4" style="mix-blend-mode:screen"/><rect x="17.63" y="4.01" width="2.81" height="4.24" transform="translate(1.24 15.25) rotate(-45)" fill="#bfc3c8" stroke="#444546" stroke-miterlimit="10"/><path d="M21.54,6.62,22,6.13a2.12,2.12,0,0,0,0-3h0a2.12,2.12,0,0,0-3,0l-.49.49Z" fill="#f4a69e" stroke="#444546" stroke-miterlimit="10"/><polygon points="6.54 15.62 6.54 18.62 9.54 18.62 6.54 15.62" fill="#fffcf2" stroke="#444546" stroke-linejoin="bevel"/></g></g></g></svg>
