<svg xmlns="http://www.w3.org/2000/svg" xmlns:xlink="http://www.w3.org/1999/xlink" viewBox="0 0 24 24"><defs><clipPath id="clip-path"><rect id="SVGID" width="24" height="24" fill="none"/></clipPath></defs><g style="isolation:isolate"><g id="Layer_1" data-name="Layer 1"><g clip-path="url(#clip-path)"><path d="M22,8.5h-.9V5.9a1.5,1.5,0,0,0-1.5-1.5h-10a.84.84,0,0,1-.75-.9v-1A1.64,1.64,0,0,0,7.15,1H2.5A1.61,1.61,0,0,0,1,2.5v15A1.5,1.5,0,0,0,2.5,19H19.6a1.5,1.5,0,0,0,.41-.06,1.42,1.42,0,0,0,1.09-1l2.4-7.8A1.46,1.46,0,0,0,22,8.5Z" fill="#69768b" opacity="0.4"/><g id="_Group_" data-name="&lt;Group&gt;"><path d="M1.5,17.5a1,1,0,0,1-1-1V1.5a1.12,1.12,0,0,1,1-1H6.15a1.15,1.15,0,0,1,1.15,1v1A1.33,1.33,0,0,0,8.55,3.9H18.2a1,1,0,0,1,1,1V16.5a1,1,0,0,1-1,1Z" fill="#efbb8a"/><path d="M6.15,1a.67.67,0,0,1,.65.5v1A1.83,1.83,0,0,0,8.55,4.4H18.2a.5.5,0,0,1,.5.5V16.5a.5.5,0,0,1-.5.5H1.5a.5.5,0,0,1-.5-.5V1.5A.65.65,0,0,1,1.5,1H6.15m0-1H1.5A1.61,1.61,0,0,0,0,1.5v15A1.5,1.5,0,0,0,1.5,18H18.2a1.5,1.5,0,0,0,1.5-1.5V4.9a1.5,1.5,0,0,0-1.5-1.5H8.55a.84.84,0,0,1-.75-.9v-1A1.64,1.64,0,0,0,6.15,0Z" fill="#444546"/></g><g id="_Group_2" data-name="&lt;Group&gt;" opacity="0.6"><path d="M6.15,0H1.5A1.61,1.61,0,0,0,0,1.5v15A1.5,1.5,0,0,0,1.5,18H18.2a1.5,1.5,0,0,0,1.5-1.5V4.9a1.5,1.5,0,0,0-1.5-1.5H8.55a.84.84,0,0,1-.75-.9v-1A1.64,1.64,0,0,0,6.15,0Z" fill="#ce996e"/></g><g id="_Group_3" data-name="&lt;Group&gt;"><path d="M1.52,17.5a1.07,1.07,0,0,1-.81-.37.86.86,0,0,1-.2-.7L2.9,8.7A.85.85,0,0,1,3.77,8h16.8a1.16,1.16,0,0,1,.9.43.64.64,0,0,1,.12.58l-2.4,7.79a1,1,0,0,1-1,.7Z" fill="#efbb8a"/><path d="M20.57,8.5a.67.67,0,0,1,.5.23c.06.07,0,.11,0,.13l-2.4,7.8v.05a.52.52,0,0,1-.53.29H1.52a.57.57,0,0,1-.43-.19A.35.35,0,0,1,1,16.56l2.37-7.7c.12-.36.26-.36.4-.36h16.8m0-1H3.77A1.37,1.37,0,0,0,2.42,8.55L0,16.35A1.46,1.46,0,0,0,1.52,18H18.17a1.49,1.49,0,0,0,1.5-1l2.4-7.8c.26-.89-.6-1.65-1.5-1.65Z" fill="#444546"/></g><g id="_Group_4" data-name="&lt;Group&gt;" opacity="0.3"><path d="M18.17,18H1.52A1.46,1.46,0,0,1,0,16.35l22.05-7.2L19.67,17A1.49,1.49,0,0,1,18.17,18Z" fill="#efbb8a"/></g><ellipse cx="17" cy="16.92" rx="7" ry="7.08" fill="#69768b" opacity="0.4"/><circle cx="16" cy="15.92" r="6" fill="#dbe0e4"/><path d="M16,9.92a6,6,0,1,1-6,6,6,6,0,0,1,6-6m0-1a7,7,0,1,0,7,7,7,7,0,0,0-7-7Z" fill="#444546"/><path d="M20,11.45A6,6,0,0,1,11.58,20,6,6,0,1,0,20,11.45Z" fill="#69768b" fill-rule="evenodd" opacity="0.3"/><path d="M10.43,16.34a6,6,0,0,1,10-4.47A6,6,0,1,0,12,20.39,6,6,0,0,1,10.43,16.34Z" fill="#fff" fill-rule="evenodd" opacity="0.5"/><polygon points="13.42 19.43 13.42 12.45 16.65 12.45 18.63 14.42 18.63 19.43 13.42 19.43" fill="#e05143"/><path d="M13.92,18.92h4.16V14.83H16.22V13h-2.3Zm3.88-4.6-1.06-1.06v1.06Z" fill="#fff" fill-rule="evenodd"/><rect id="SVGID-2" data-name="SVGID" width="24" height="24" fill="none"/></g></g></g></svg>
