<svg xmlns="http://www.w3.org/2000/svg" xmlns:xlink="http://www.w3.org/1999/xlink" viewBox="0 0 24 24"><defs><clipPath id="clip-path"><rect id="SVGID" width="24" height="24" fill="none"/></clipPath></defs><g style="isolation:isolate"><g id="Layer_1" data-name="Layer 1"><g clip-path="url(#clip-path)"><polygon points="9.29 1.76 9.09 1.78 7.87 1.87 7.64 1.89 7.58 1.94 7.51 1.89 7.29 1.87 6.07 1.78 5.86 1.76 5.68 1.85 4.41 2.5 4.26 2.58 4.16 2.72 3.42 3.7 3.31 3.85 3.29 4.03 3.08 5.42 2.73 6.97 2.69 7.13 2.73 7.3 3.02 8.57 2.77 9.46 2.64 9.89 2.97 10.2 3.43 10.63 3.12 10.77 2.9 10.87 2.78 11.08 1.48 13.46 0.88 14.54 2.12 14.54 3.88 14.54 11.23 14.54 13 14.54 14.23 14.54 13.64 13.46 12.34 11.08 12.22 10.87 12 10.77 11.71 10.64 12.19 10.2 12.51 9.89 12.39 9.46 12.13 8.57 12.43 7.3 12.46 7.13 12.43 6.97 12.07 5.42 11.87 4.03 11.84 3.85 11.73 3.7 11 2.72 10.9 2.58 10.74 2.5 9.48 1.85 9.29 1.76 9.29 1.76" fill="#69768b" opacity="0.4"/><polygon points="10.8 10.54 8.35 9.43 6.68 11.1 5.01 9.43 2.52 10.54 1.22 12.91 12.1 12.91 10.8 10.54" fill="#69768b"/><polygon points="5.01 7.4 5.01 9.43 6.68 11.1 8.35 9.43 8.35 7.4 5.01 7.4" fill="#efbb8a"/><polygon points="5.01 7.4 5.01 9.43 6.68 11.1 8.35 9.43 8.35 7.4 5.01 7.4" fill="#ce996e" opacity="0.6"/><polygon points="8.53 6.7 9.17 6.7 9.55 6.31 9.71 4.9 9.28 4.48 8.53 6.7" fill="#ce996e"/><polygon points="4.83 6.7 4.24 6.7 3.86 6.31 3.65 4.9 4.08 4.48 4.83 6.7" fill="#ce996e"/><polygon points="6.68 9.95 5.34 9.28 4.27 8.01 4 6.59 4 3.91 4.67 2.92 6.68 2.25 8.69 2.92 9.36 3.91 9.36 6.59 9.09 8.01 8.02 9.28 6.68 9.95" fill="#efbb8a"/><polygon points="6.68 11.1 5.54 12.24 4.6 10.42 4.6 9.61 6.68 11.1" fill="#9dcbe8"/><polygon points="6.68 11.1 7.81 12.24 8.76 10.42 8.76 9.62 6.68 11.1" fill="#9dcbe8"/><polygon points="5.01 9.43 5.01 8.72 4.6 8.97 4.6 10.42 5.04 12.08 6.68 11.1 5.01 9.43" fill="#b4bbc5"/><polygon points="8.35 9.43 8.35 8.72 8.76 8.97 8.76 10.42 8.32 12.08 6.68 11.1 8.35 9.43" fill="#b4bbc5"/><circle cx="6.68" cy="12.07" r="0.24" fill="#dae5ed"/><polygon points="2.52 10.54 1.22 12.91 2.99 12.91 2.52 10.54" fill="#b4bbc5"/><polygon points="10.8 10.54 12.1 12.91 10.34 12.91 10.8 10.54" fill="#b4bbc5"/><polygon points="6.68 10.58 5.01 9.43 6.68 11.1 8.35 9.43 6.68 10.58" fill="#444546" opacity="0.6"/><polygon points="6.68 1.98 6.33 1.7 5.11 1.61 3.85 2.25 3.11 3.24 2.9 4.66 2.54 6.24 2.88 7.69 2.57 8.77 3.84 9.95 4.6 9.61 4.6 8.97 4.92 8.78 4.27 8.01 4 6.45 3.86 6.31 3.65 4.9 4 4.56 4 6.45 4.6 4.79 5.89 4.29 6.68 3.54 6.68 1.98" fill="#736357"/><polygon points="6.68 1.98 7.03 1.7 8.24 1.61 9.51 2.25 10.24 3.24 10.46 4.66 10.81 6.24 10.48 7.69 10.79 8.77 9.51 9.96 8.76 9.62 8.76 8.97 8.44 8.78 9.09 8.01 9.36 6.45 9.5 6.31 9.71 4.9 9.36 4.56 9.36 6.45 8.76 4.79 7.46 4.29 6.68 3.54 6.68 1.98" fill="#736357"/><polygon points="6.68 1.98 6.68 3.54 5.89 4.29 4.6 4.79 5.47 4.01 6.05 3.5 5.26 3.24 5.95 3.03 5.17 2.45 6.12 2.4 5.25 1.84 6.18 1.92 6.33 1.7 6.68 1.98" fill="#444546" opacity="0.4"/><polygon points="6.68 1.98 6.68 3.54 7.46 4.29 8.76 4.79 7.89 4.01 7.31 3.5 8.1 3.24 7.41 3.03 8.19 2.45 7.24 2.4 8.11 1.84 7.18 1.92 7.03 1.7 6.68 1.98" fill="#d8c4ad" opacity="0.6"/><polygon points="3.44 5.14 3.86 6.31 3.65 4.9 4 4.56 4 6.45 4.6 4.79 4.82 4.03 4.14 4.05 4.67 3.35 3.75 3.63 4.41 2.82 3.69 3.22 3.85 2.25 3.11 3.24 2.9 4.66 2.54 6.24 2.88 7.69 2.57 8.77 3.36 9.2 3.47 8.61 3.75 7.88 3.29 6.66 3.14 5.41 3.44 5.14" fill="#d8c4ad" opacity="0.6"/><polygon points="9.36 6.45 9.5 6.31 9.71 4.9 9.36 4.56 9.36 6.45 8.76 4.79 8.54 4.03 9.22 4.05 8.69 3.35 9.61 3.63 8.95 2.82 9.67 3.22 9.51 2.25 10.24 3.24 10.46 4.66 10.6 6.27 10.04 7.62 10.17 8.6 9.23 9.83 8.76 9.62 8.76 8.97 8.44 8.78 9.09 8.01 9.36 6.45" fill="#444546" opacity="0.4"/><path d="M8.25,1.61l1.27.65.73,1,.21,1.42.36,1.58-.34,1.46.31,1.07L9.51,10l1.29.58,1.3,2.38H1.22l1.3-2.38L3.84,10,2.57,8.76l.31-1.07L2.55,6.24,2.9,4.66l.21-1.42.73-1,1.27-.65,1.22.09L6.68,2,7,1.7l1.22-.09M8.39.86l-.21,0L7,1,6.74,1,6.68,1,6.61,1,6.39,1,5.17.88,5,.86,4.78,1,3.51,1.6l-.15.08-.1.14-.73,1-.11.15,0,.18L2.18,4.52,1.83,6.07l0,.16,0,.16.29,1.27-.26.89L1.74,9l.33.31.46.43-.31.14L2,10l-.12.22L.58,12.56,0,13.64H13.34l-.59-1.08-1.3-2.38L11.32,10l-.22-.1-.28-.13.47-.44L11.61,9l-.12-.43-.26-.89.29-1.27,0-.16,0-.16-.35-1.55L11,3.13l0-.18-.11-.15-.73-1L10,1.68,9.85,1.6,8.58,1,8.39.86Z" fill="#444546"/><polygon points="17.23 1.76 17.14 1.77 15.26 2.02 15.07 2.04 14.92 2.15 14.27 2.63 14.03 2.81 13.99 3.1 13.71 4.92 13.69 5.03 13.71 5.15 13.78 5.57 13.66 5.69 13.71 6.05 13.9 7.36 13.93 7.59 14.02 7.68 14.02 7.69 14.1 7.84 14.78 9.21 14.58 9.32 14.58 9.73 14.58 9.79 12.54 10.51 12.26 10.61 12.13 10.88 10.92 13.52 10.45 14.54 11.57 14.54 13.21 14.54 21.25 14.54 22.9 14.54 24.02 14.54 23.55 13.52 22.34 10.88 22.21 10.61 21.93 10.51 19.89 9.79 19.89 9.73 19.89 9.32 19.69 9.21 20.37 7.84 20.4 7.77 20.42 7.76 20.59 7.58 20.62 7.33 20.76 6.03 20.8 5.68 20.68 5.57 20.75 5.15 20.77 5.03 20.76 4.92 20.48 3.1 20.43 2.81 20.2 2.63 19.55 2.15 19.4 2.04 19.21 2.02 17.33 1.77 17.23 1.76 17.23 1.76" fill="#69768b" opacity="0.4"/><polygon points="20.79 10.29 17.89 9.26 16.34 10.81 14.79 9.26 11.88 10.29 10.67 12.93 22 12.93 20.79 10.29" fill="#e84d3d"/><polygon points="14.79 7.38 14.79 9.26 16.34 10.81 17.89 9.26 17.89 7.38 14.79 7.38" fill="#efbb8a"/><polygon points="14.79 7.38 14.79 9.26 16.34 10.81 17.89 9.26 17.89 7.38 14.79 7.38" fill="#ce996e" opacity="0.6"/><polygon points="18.05 6.72 18.65 6.72 19.01 6.36 19.15 5.05 18.75 4.66 18.05 6.72" fill="#ce996e"/><polygon points="14.62 6.72 14.07 6.72 13.71 6.36 13.52 5.05 13.92 4.66 14.62 6.72" fill="#ce996e"/><polygon points="16.34 9.74 15.09 9.12 13.84 6.63 13.84 4.13 14.47 2.89 16.34 2.27 18.2 2.89 18.83 4.13 18.83 6.63 17.58 9.12 16.34 9.74" fill="#efbb8a"/><polygon points="18.87 2.31 18.22 1.83 16.34 1.59 14.45 1.83 13.8 2.31 13.52 4.13 13.84 6.07 14.24 4.23 15.17 3.86 16.34 4.53 17.5 3.86 18.43 4.23 18.83 6.07 19.15 4.13 18.87 2.31" fill="#fbb03b"/><polygon points="16.34 4.53 16.34 3.56 16.63 2.99 17.6 2.77 18.5 3 18.87 2.31 19.15 4.13 18.83 6.07 18.43 4.23 17.5 3.86 16.34 4.53" fill="#444546" opacity="0.4"/><polygon points="16.34 4.53 17.45 4.26 18.32 4.4 18.58 4.93 18.43 4.23 17.5 3.86 16.34 4.53" fill="#ce996e"/><polygon points="16.34 4.53 16.34 3.56 16.04 2.99 15.07 2.77 14.17 3 13.8 2.31 13.52 4.13 13.84 6.07 14.24 4.23 15.17 3.86 16.34 4.53" fill="#fff" opacity="0.4" style="mix-blend-mode:screen"/><polygon points="16.34 10.81 15.28 12.3 14.4 10.18 14.36 9.41 16.34 10.81" fill="#9dcbe8"/><polygon points="16.34 10.81 17.39 12.3 18.27 10.18 18.31 9.41 16.34 10.81" fill="#9dcbe8"/><polygon points="14.79 9.26 14.79 8.6 14.4 8.83 14.4 10.18 14.81 12.15 16.34 10.81 14.79 9.26" fill="#f4a69e"/><polygon points="17.89 9.26 17.89 8.6 18.27 8.83 18.27 10.18 17.86 12.15 16.34 10.81 17.89 9.26" fill="#f4a69e"/><circle cx="16.34" cy="11.74" r="0.23" fill="#fde9e7"/><circle cx="16.34" cy="12.7" r="0.23" fill="#f4a69e"/><polygon points="11.88 10.29 10.67 12.93 12.31 12.93 11.88 10.29" fill="#f4a69e"/><polygon points="20.79 10.29 22 12.93 20.36 12.93 20.79 10.29" fill="#f4a69e"/><polygon points="16.34 10.32 14.79 9.26 16.34 10.81 17.89 9.26 16.34 10.32" fill="#444546" opacity="0.6"/><path d="M16.34,1.59l1.89.24.65.48.28,1.82L19,4.92l.13.13L19,6.36l-.18.18v.09l-.94,1.88v.1l.38.23V9.4h0l2.48.88L22,12.93H10.67l1.21-2.64,2.48-.88h0V8.83l.38-.23v-.1l-.94-1.88V6.49l-.13-.13-.19-1.31.13-.13-.13-.79.28-1.82.65-.48,1.89-.24m0-.72h-.09l-1.89.24-.19,0L14,1.25l-.65.48-.24.18,0,.29L12.81,4l0,.11,0,.11.07.42-.12.12.05.36L13,6.46l0,.23.09.09h0l.08.15.68,1.36-.2.12v.46l-2,.72-.29.1-.13.28L10,12.63l-.47,1H23.12l-.47-1L21.44,10l-.13-.28L21,9.61l-2-.72V8.43l-.2-.12.68-1.36,0-.07h0l.17-.18,0-.25.14-1.31,0-.35-.11-.11.07-.42,0-.11,0-.11L19.58,2.2l0-.29-.24-.18-.65-.48-.15-.11-.19,0L16.43.87Z" fill="#444546"/><polygon points="12.37 5.76 12.12 5.84 10.02 6.59 9.78 6.3 9.24 6.97 8.41 7.99 8.37 8.04 8.34 8.09 7.52 9.6 7.4 9.81 7.44 10.06 7.58 10.89 7.39 11.08 7.44 11.43 7.72 13.39 7.76 13.62 7.91 13.78 7.91 13.86 7.99 14.01 9.16 16.36 9.09 16.4 8.75 16.6 8.75 17 8.75 17.34 5.45 18.51 5.1 18.64 5 18.99 4.09 22.24 3.84 23.14 4.77 23.14 19.94 23.14 20.87 23.14 20.62 22.24 19.71 18.99 19.61 18.64 19.27 18.51 15.96 17.34 15.96 17 15.96 16.6 15.62 16.4 15.55 16.36 16.73 14.01 16.8 13.86 16.8 13.85 16.87 13.79 17.04 13.61 17.07 13.37 17.28 11.41 17.31 11.07 17.13 10.89 17.27 10.07 17.31 9.86 17.22 9.67 16.27 7.5 16.16 7.23 15.88 7.12 12.61 5.85 12.37 5.76 12.37 5.76" fill="#69768b" opacity="0.4"/><polygon points="18.32 18.47 13.97 16.93 11.65 19.26 9.32 16.93 4.98 18.47 3.16 22.43 20.14 22.43 18.32 18.47" fill="#efc519"/><polygon points="9.32 14.11 9.32 16.93 11.65 19.26 13.97 16.93 13.97 14.11 9.32 14.11" fill="#efbb8a"/><polygon points="9.32 14.11 9.32 16.93 11.65 19.26 13.97 16.93 13.97 14.11 9.32 14.11" fill="#ce996e" opacity="0.6"/><polygon points="14.22 13.13 15.11 13.13 15.65 12.58 15.87 10.62 15.27 10.04 14.22 13.13" fill="#ce996e"/><polygon points="9.08 13.13 8.26 13.13 7.72 12.58 7.43 10.62 8.03 10.04 9.08 13.13" fill="#ce996e"/><polygon points="11.65 17.65 9.78 16.72 7.91 12.98 7.91 9.25 8.85 7.38 11.65 6.45 14.45 7.38 15.38 9.25 15.38 12.98 13.52 16.72 11.65 17.65" fill="#efbb8a"/><polygon points="9.62 8.74 10.6 10.33 12.34 10.43 14.03 10.62 14.84 11.56 14.71 9.3 11.35 8.26 9.62 8.74" fill="#ce996e"/><polygon points="9.62 8.74 10.57 9.74 12.16 9.74 14.01 10.04 14.79 12.08 15.38 12.05 15.87 9.24 14.92 7.07 11.65 5.8 9.41 6.6 9.62 8.74" fill="#444546"/><polygon points="9.62 8.74 9.47 7.17 9.08 6.71 8.26 7.72 7.43 9.23 7.91 12.05 8.53 12.05 8.53 10.16 9.62 8.74" fill="#444546"/><polygon points="11.65 19.26 10.07 21.49 8.75 18.31 8.69 17.16 11.65 19.26" fill="#efc519"/><polygon points="11.65 19.26 13.23 21.49 14.55 18.31 14.61 17.16 11.65 19.26" fill="#efc519"/><polygon points="9.32 16.93 9.32 15.95 8.75 16.3 8.75 18.31 9.36 21.27 11.65 19.26 9.32 16.93" fill="#fcf1c5"/><polygon points="13.97 16.93 13.97 15.95 14.55 16.3 14.55 18.31 13.94 21.27 11.65 19.26 13.97 16.93" fill="#fcf1c5"/><circle cx="11.65" cy="20.65" r="0.34" fill="#f3f9fe"/><circle cx="11.65" cy="22.09" r="0.34" fill="#f4a69e"/><polygon points="4.98 18.47 3.16 22.43 5.62 22.43 4.98 18.47" fill="#fcf1c5"/><polygon points="18.32 18.47 20.14 22.43 17.68 22.43 18.32 18.47" fill="#fcf1c5"/><polygon points="11.65 18.53 9.32 16.93 11.65 19.26 13.97 16.93 11.65 18.53" fill="#444546" opacity="0.6"/><polygon points="9.65 6.71 9.84 8.43 10.65 9.47 12.11 9.47 14.22 9.84 13.23 9.29 13.88 9.01 11.49 8.86 12.8 8.53 10.87 8.38 12.23 8.05 10.47 7.92 11.94 7.51 10.44 7.44 12.09 6.98 10.08 6.98 11.42 6.55 10.49 6.71 11.35 6.08 9.65 6.71" fill="#999"/><path d="M11.65,5.8l3.27,1.27.95,2.17-.2,1.18.2.2-.21,2-.27.27V13L14,15.8V16l.57.34v.84l.06,0,3.71,1.31.91,3.25H4.06L5,18.47l3.71-1.31.06,0V16.3L9.32,16V15.8L7.91,13v-.2l-.2-.2-.28-2,.2-.2-.2-1.19.82-1.51.82-1,.39.47L9.41,6.6l2.24-.79m0-.76-.25.09-2.1.74-.24-.29-.54.67-.82,1,0,.05,0,.06L6.81,8.89l-.12.22,0,.24.14.83-.2.19.05.36.28,2,0,.23.16.16v.08l.07.15,1.17,2.35-.07,0L8,15.89v.74l-3.3,1.17-.35.12-.1.35-.91,3.25-.25.9h17l-.25-.9L19,18.28l-.1-.35-.35-.12-3.3-1.17v-.74l-.34-.21-.07,0L16,13.3l.07-.15h0l.07-.07.17-.18,0-.24.21-2,0-.34-.18-.18.14-.82,0-.21L16.51,9l-.95-2.17-.12-.27-.28-.11L11.91,5.14,11.66,5Z" fill="#444546"/></g></g></g></svg>
