<svg xmlns="http://www.w3.org/2000/svg" xmlns:xlink="http://www.w3.org/1999/xlink" viewBox="0 0 24 24"><defs><clipPath id="clip-path"><rect id="SVGID" width="24" height="24" fill="none"/></clipPath></defs><g style="isolation:isolate"><g id="Layer_1" data-name="Layer 1"><g clip-path="url(#clip-path)"><path d="M21.75,3.17A7.66,7.66,0,0,0,8.91,10.46l-7.61,7.6L1,18.36v4.71H5.86l.29-.29L6.9,22H8.44l.29-.29L9.51,21l.29-.29V18.56H11l.29-.29.47-.47.71-.71-.71-.71-.18-.18h2l.29-.29.06-.06A7.66,7.66,0,0,0,21.75,3.17Zm-3.27,4a.48.48,0,1,1,.14-.34A.48.48,0,0,1,18.49,7.15Z" fill="#69768b" opacity="0.4"/><path d="M20,2.91A6.66,6.66,0,0,0,9,9.78l-8,8v3.3H4.45l1-1H7l.77-.77v-2.7H9.54l.47-.47-1-1,.86-.86h2.31l.52-.52A6.66,6.66,0,0,0,20,2.91ZM18.2,6.85a1.48,1.48,0,1,1,0-2.09A1.48,1.48,0,0,1,18.2,6.85Z" fill="#efbb8a"/><path d="M15.33,1a6.66,6.66,0,1,1-2.67,12.76l-.52.52H9.84L9,15.1l1,1-.47.47H7.8v2.7L7,20.06H5.49l-1,1H1V17.8l8-8A6.65,6.65,0,0,1,15.33,1m1.81,6.33a1.48,1.48,0,1,0-1-.43,1.48,1.48,0,0,0,1,.43M15.33,0A7.65,7.65,0,0,0,7.91,9.49L.29,17.09,0,17.38V22.1H4.86l.29-.29.75-.75H7.44l.29-.29L8.51,20l.29-.29V17.59H10l.29-.29.47-.47.71-.71-.71-.71-.18-.18h2l.29-.29.06-.06A7.66,7.66,0,1,0,15.33,0Zm1.81,6.33a.48.48,0,1,1,.34-.14.48.48,0,0,1-.34.14Z" fill="#444546"/><g opacity="0.5"><path d="M18.7,7.35a1.48,1.48,0,0,0,0-2.09,1.42,1.42,0,0,0-.3-.2,1.44,1.44,0,0,1-2,2,1.42,1.42,0,0,0,.2.3A1.48,1.48,0,0,0,18.7,7.35Z" fill="#fff"/><rect x="9.74" y="15.49" height="0.74" transform="translate(-8.36 11.54) rotate(-45)" fill="#fff"/><path d="M1.5,18.3l8-8a6.65,6.65,0,0,1,10.75-7.1L20,2.91A6.66,6.66,0,0,0,9,9.78l-8,8v3.3h.5Z" fill="#fff"/></g><path d="M20,12.33a6.65,6.65,0,0,0,1.69-6.57L13.48,14A6.67,6.67,0,0,0,20,12.33Z" fill="#fff" opacity="0.5" style="mix-blend-mode:overlay"/><g opacity="0.4"><polygon points="9.04 16.09 7.3 16.09 7.3 18.79 6.53 19.56 4.99 19.56 3.95 20.6 1 20.6 1 21.09 4.45 21.09 5.49 20.06 7.03 20.06 7.8 19.29 7.8 16.59 9.54 16.59 10.01 16.12 9.51 15.62 9.04 16.09" fill="#69768b"/><path d="M15.6,4.26a1.48,1.48,0,0,0,0,2.09,1.42,1.42,0,0,0,.3.2,1.44,1.44,0,0,1,2-2,1.42,1.42,0,0,0-.2-.3A1.48,1.48,0,0,0,15.6,4.26Z" fill="#69768b"/><path d="M20,2.91l-.26-.23a6.65,6.65,0,0,1-7.62,10.54l-.52.52H9.34l-.86.86.5.5.86-.86h2.31l.52-.52A6.66,6.66,0,0,0,20,2.91Z" fill="#69768b"/></g><polygon points="1 21.1 1 19.45 8.72 11.73 10.37 11.73 1 21.1" fill="#ce996e"/><polygon points="10.37 11.73 10.37 13.38 2.65 21.1 1 21.1 10.37 11.73" fill="#fff" opacity="0.4"/><path d="M8.75,8.58a6.63,6.63,0,0,0,.6,1.94l8.89-8.89A6.64,6.64,0,0,0,16.29,1Z" fill="#fff" opacity="0.3" style="mix-blend-mode:overlay"/></g></g></g></svg>
