<svg xmlns="http://www.w3.org/2000/svg" xmlns:xlink="http://www.w3.org/1999/xlink" viewBox="0 0 24 24">
  <g style="isolation:isolate">
    <g opacity="0.4">
      <path d="M12.51,2.1l-.13,0-3.31.43-.26,0-.21.16-1.14.85-.33.25-.06.41L6.59,7.42l0,.16,0,.16.14.88-.22.22.07.5.33,2.29,0,.32.17.18v.06l.11.21L8.55,15l-.43.26v.84L4.37,17.43l-.4.14L3.79,18,1.67,22.58,1,24H24l-.65-1.42L21.23,18,21,17.57l-.4-.14L16.9,16.1v-.84L16.47,15l1.3-2.6.08-.17.05-.05.24-.25,0-.35.25-2.29.05-.48-.2-.2.14-.88,0-.16,0-.16-.49-3.19-.06-.41-.33-.25-1.14-.85-.21-.16-.26,0-3.31-.43-.13,0Z" fill="#69768b"/>
    </g>
    <polygon points="0.8 22.5 3.33 16.97 7.62 15.45 7.62 14.54 8.2 14.19 6.64 11.06 6.64 10.91 6.43 10.71 6.04 8.01 6.27 7.79 6.07 6.57 6.6 3.1 8.01 2.06 11.51 1.6 15.01 2.06 16.42 3.1 16.95 6.57 16.75 7.79 16.96 8 16.67 10.7 16.38 11 16.38 11.06 14.82 14.19 15.4 14.54 15.4 15.45 19.68 16.97 22.22 22.5 0.8 22.5" fill="#fff"/>
    <path d="M11.51,2.11l3.31.43L16,3.38l.49,3.19L16.21,8l.23.23-.25,2.29-.32.32v.15l-1.65,3.3v.17l.67.4v1l4.42,1.56L21.44,22H1.58L3.7,17.37l4.42-1.56v-1l.67-.4v-.17l-1.65-3.3v-.24l-.23-.24L6.58,8.19,6.8,8,6.58,6.57l.49-3.19L8.2,2.54l3.31-.43m0-1-.13,0-3.31.43-.26,0-.21.16-1.14.85-.33.25-.06.41L5.59,6.42l0,.16,0,.16.14.88-.22.22.07.5.33,2.29,0,.32.17.18v.06l.11.21L7.55,14l-.43.26v.84L3.37,16.43l-.4.14L2.79,17,.67,21.58,0,23H23l-.65-1.42L20.23,17,20,16.57l-.4-.14L15.9,15.1v-.84L15.47,14l1.3-2.6.08-.17.05-.05.24-.25,0-.35.25-2.29.05-.48-.2-.2.14-.88,0-.16,0-.16-.49-3.19-.06-.41-.33-.25-1.14-.85-.21-.16-.26,0-3.31-.43-.13,0Z" fill="#444546"/>
    <polygon points="19.32 17.37 15.93 16.15 14.9 14.82 14.23 14.42 14.23 15.57 11.51 18.29 8.79 15.57 8.79 14.42 8.12 14.82 7.14 16.15 3.7 17.37 1.57 22 21.44 22 19.32 17.37" fill="#2d3e50"/>
    <polygon points="8.12 15.81 10.51 22 12.51 22 14.9 15.81 11.51 18.29 8.12 15.81" fill="#eef0f2"/>
    <polygon points="8.79 12.26 8.79 15.57 11.51 18.29 14.23 15.57 14.23 12.26 8.79 12.26" fill="#efbb8a"/>
    <polygon points="8.79 12.26 8.79 15.57 11.51 18.29 14.23 15.57 14.23 12.26 8.79 12.26" fill="#ce996e" opacity="0.6"/>
    <polygon points="14.52 11.12 15.56 11.12 16.19 10.47 16.44 8.19 15.74 7.5 14.52 11.12" fill="#ce996e"/>
    <polygon points="8.5 11.12 7.54 11.12 6.91 10.47 6.58 8.19 7.28 7.5 8.5 11.12" fill="#ce996e"/>
    <polygon points="11.51 16.41 9.32 15.32 7.14 10.95 7.14 6.58 8.23 4.39 11.51 3.3 14.79 4.39 15.88 6.58 15.88 10.95 13.69 15.32 11.51 16.41" fill="#efbb8a"/>
    <polygon points="15.95 3.38 14.82 2.54 11.51 2.11 8.2 2.54 7.06 3.38 6.58 6.57 7.14 9.98 7.84 6.75 9.47 6.09 11.51 7.27 13.55 6.09 15.18 6.75 15.88 9.98 16.44 6.57 15.95 3.38" fill="#fbb03b"/>
    <polygon points="11.51 7.27 11.51 5.57 12.03 4.57 13.72 4.18 15.31 4.58 15.95 3.38 16.44 6.57 15.88 9.98 15.18 6.75 13.55 6.09 11.51 7.27" fill="#444546" opacity="0.4"/>
    <polygon points="11.51 7.27 13.46 6.8 14.99 7.04 15.45 7.98 15.18 6.75 13.55 6.09 11.51 7.27" fill="#ce996e"/>
    <polygon points="11.51 7.27 11.51 5.57 10.99 4.57 9.3 4.18 7.71 4.58 7.06 3.38 6.58 6.57 7.14 9.98 7.84 6.75 9.47 6.09 11.51 7.27" fill="#fff" opacity="0.4" style="mix-blend-mode:screen"/>
    <polygon points="11.51 18.29 10.13 20.99 8.12 15.81 8.79 15.57 11.51 18.29" fill="#9dcbe8"/>
    <polygon points="11.51 18.29 12.89 20.99 14.9 15.81 14.23 15.57 11.51 18.29" fill="#9dcbe8"/>
    <polygon points="8.79 15.57 8.79 14.42 8.12 15.81 10.14 20.24 11.51 18.29 8.79 15.57" fill="#f6f8f9"/>
    <polygon points="14.23 15.57 14.23 14.42 14.9 15.81 12.88 20.24 11.51 18.29 14.23 15.57" fill="#f6f8f9"/>
    <polygon points="3.7 17.37 1.57 22 4.45 22 3.7 17.37" fill="#2d3e50"/>
    <polygon points="19.32 17.37 21.44 22 18.56 22 19.32 17.37" fill="#2d3e50"/>
    <polygon points="11.51 17.44 8.79 15.57 11.51 18.29 14.23 15.57 11.51 17.44" fill="#444546" opacity="0.6"/>
    <polygon points="8.5 22 8.12 21.4 9.19 20.13 7.83 20.13 7.14 16.15 7.71 20.7 8.5 20.7 7.97 21.4 8.16 22 8.5 22" fill="#2d3e50"/>
    <polygon points="14.56 22 14.95 21.4 13.87 20.13 15.23 20.13 15.93 16.15 15.36 20.7 14.56 20.7 15.09 21.4 14.9 22 14.56 22" fill="#2d3e50"/>
    <polygon points="11.51 18.29 10.61 19.56 10.75 20.24 10.89 20.46 11.04 20.08 11.51 19.92 11.98 20.08 12.12 20.46 12.26 20.24 12.4 19.56 11.51 18.29" fill="#e84d3d"/>
    <polygon points="10.89 20.46 10.51 22 12.51 22 12.12 20.46 11.98 20.08 11.51 19.92 11.04 20.08 10.89 20.46" fill="#e84d3d"/>
    <polygon points="12.12 20.46 11.98 20.08 11.51 19.92 11.04 20.08 10.89 20.46 10.77 20.96 11.11 20.34 11.51 20.24 11.91 20.34 12.25 20.96 12.12 20.46" fill="#b52b24"/>
    <polygon points="3.7 17.37 4.45 22 4.96 22 3.7 17.37" fill="#2d3e50"/>
    <polygon points="19.32 17.37 18.56 22 18.06 22 19.32 17.37" fill="#2d3e50"/>
  </g>
</svg>