<svg xmlns="http://www.w3.org/2000/svg" xmlns:xlink="http://www.w3.org/1999/xlink" viewBox="0 0 24 24"><defs><clipPath id="clip-path"><rect id="SVGID" width="24" height="24" fill="none"/></clipPath></defs><g style="isolation:isolate"><g id="Layer_1" data-name="Layer 1"><g clip-path="url(#clip-path)"><g id="_Group_" data-name="&lt;Group&gt;"><polygon id="_Path_" data-name="&lt;Path&gt;" points="21.36 24 5.34 24 5.34 1.34 15.16 1.34 21.36 7.54 21.36 24" fill="#69768b" opacity="0.4"/><g id="_Group_2" data-name="&lt;Group&gt;"><polygon points="4.5 22.16 4.5 0.5 13.61 0.5 19.52 6.41 19.52 22.16 4.5 22.16" fill="#fff"/><path d="M13.41,1,19,6.62v15H5V1h8.41m.41-1H4V22.66H20V6.2L13.82,0Z" fill="#444546"/></g><polygon points="5 15.21 5 21.66 19.02 21.66 19.02 10.63 5 15.21" fill="#f4f5f6"/><g id="_Group_3" data-name="&lt;Group&gt;"><polygon points="13.52 6.5 13.52 0.5 13.79 0.5 19.53 6.23 19.53 6.5 13.52 6.5" fill="#cee4f3"/><path d="M14,1.44,18.59,6H14V1.44M14,0H13V7h7V6L14,0Z" fill="#444546"/></g><polygon id="_Path_2" data-name="&lt;Path&gt;" points="14 7 14 8.97 20.02 7 14 7" fill="#69768b" opacity="0.4"/></g></g></g></g></svg>
