<svg xmlns="http://www.w3.org/2000/svg" xmlns:xlink="http://www.w3.org/1999/xlink" viewBox="0 0 24 24"><defs><clipPath id="clip-path"><rect id="SVGID" width="24" height="24" transform="translate(24) rotate(90)" fill="none"/></clipPath></defs><g style="isolation:isolate"><g id="Layer_1" data-name="Layer 1"><g clip-path="url(#clip-path)"><rect x="18" y="10" width="4" height="14" fill="#69768b" opacity="0.4"/><rect x="13" y="15" width="4" height="9" fill="#69768b" opacity="0.4"/><rect x="8" y="20" width="4" height="4" transform="translate(32 12) rotate(90)" fill="#69768b" opacity="0.4"/><rect x="19.5" y="9.5" width="3" height="13" fill="#26b298"/><path d="M22,10V22H20V10h2m1-1H19V23h4V9Z" fill="#444546"/><g opacity="0.3"><rect x="21" y="10" width="1" height="12.01" fill="#26b298"/></g><rect x="14.5" y="14.5" width="3" height="8" fill="#efc519"/><path d="M17,15v7H15V15h2m1-1H14v9h4V14Z" fill="#444546"/><g opacity="0.3"><rect x="16" y="15.01" width="1" height="6.99" fill="#efc519"/></g><rect x="9.5" y="19.5" width="3" height="3" fill="#e84d3d"/><path d="M12,20v2H10V20h2m1-1H9v4h4V19Z" fill="#444546"/><g opacity="0.3"><rect x="11" y="20" width="1" height="2" fill="#e84d3d"/></g><circle cx="7.06" cy="7.06" r="6" fill="#69768b" opacity="0.4"/><path d="M6.06,11.56a5.5,5.5,0,0,1,0-11,.5.5,0,0,1,.5.5v10A.5.5,0,0,1,6.06,11.56Z" fill="#eb802d"/><path d="M6.06,1.06v10a5,5,0,0,1,0-10m0-1a6,6,0,0,0,0,12,1,1,0,0,0,1-1v-10a1,1,0,0,0-1-1Z" fill="#444546"/><path d="M6.06,11.56a.5.5,0,0,1-.5-.5v-5a.5.5,0,0,1,.25-.43l4.33-2.5a.5.5,0,0,1,.68.18,5.5,5.5,0,0,1-4.76,8.25Z" fill="#3b97d3"/><path d="M10.39,3.56a5,5,0,0,1-4.33,7.5v-5l4.33-2.5m0-1a1,1,0,0,0-.5.13L5.56,5.19a1,1,0,0,0-.5.87v5a1,1,0,0,0,1,1,6,6,0,0,0,5.2-9,1,1,0,0,0-.87-.5Z" fill="#444546"/><path d="M6.06,6.56a.5.5,0,0,1-.5-.5v-5a.5.5,0,0,1,.5-.5,5.52,5.52,0,0,1,4.76,2.75.5.5,0,0,1-.18.68L6.31,6.49A.5.5,0,0,1,6.06,6.56Z" fill="#dbe0e4"/><path d="M6.06,1.06a5,5,0,0,1,4.33,2.5L6.06,6.06v-5m0-1a1,1,0,0,0-1,1v5a1,1,0,0,0,1.5.87l4.33-2.5a1,1,0,0,0,.37-1.37,6,6,0,0,0-5.2-3Z" fill="#444546"/><polygon points="6.06 7.2 6.92 6.71 6.03 6.59 6.06 7.2" fill="#444546"/><polyline points="0.5 20.5 2.56 15.27 9.29 16 11.5 13.36 16.15 8.12 21.98 2" fill="none" stroke="#444546" stroke-miterlimit="10"/><polyline points="1.5 21.5 3.56 16.27 10.29 17 12.5 14.36 17.15 9.12 22.98 3" fill="none" stroke="#69768b" stroke-miterlimit="10" opacity="0.4"/><circle cx="2.56" cy="15.27" r="1.5" fill="#e84d3d"/><path d="M2.56,14.27a1,1,0,1,1-1,1,1,1,0,0,1,1-1m0-1a2,2,0,1,0,2,2,2,2,0,0,0-2-2Z" fill="#444546"/><circle cx="16.15" cy="8.12" r="1.5" fill="#efc519"/><path d="M16.15,7.12a1,1,0,1,1-1,1,1,1,0,0,1,1-1m0-1a2,2,0,1,0,2,2,2,2,0,0,0-2-2Z" fill="#444546"/><circle cx="21.98" cy="2" r="1.5" fill="#3b97d3"/><path d="M22,1a1,1,0,1,1-1,1,1,1,0,0,1,1-1m0-1a2,2,0,1,0,2,2,2,2,0,0,0-2-2Z" fill="#444546"/><circle cx="9.29" cy="16" r="1.5" fill="#eb802d"/><path d="M9.29,15a1,1,0,1,1-1,1,1,1,0,0,1,1-1m0-1a2,2,0,1,0,2,2,2,2,0,0,0-2-2Z" fill="#444546"/><path d="M5,1.63V1.16A5,5,0,0,0,2.73,9.78,5,5,0,0,1,5,1.63Z" fill="#fff" fill-rule="evenodd" opacity="0.5"/><path d="M6.06,1.06v5l.36-4.65A5,5,0,0,1,9.74,2.69,5,5,0,0,0,6.06,1.06Z" fill="#fff" fill-rule="evenodd" opacity="0.5"/><path d="M10.39,3.56a5.12,5.12,0,0,0-1-1.22A2.09,2.09,0,0,1,9.87,3.4L6.06,6.06Z" fill="#69768b" fill-rule="evenodd" opacity="0.3"/><path d="M5,1.16,4.76,10.6A5,5,0,0,1,2.37,9.43,5,5,0,0,0,5,11Z" fill="#69768b" fill-rule="evenodd" opacity="0.3"/><path d="M10.8,4.48l-.23.13a4.92,4.92,0,0,1-4.15,6l-.36,0v.39A5,5,0,0,0,10.8,4.48Z" fill="#69768b" fill-rule="evenodd" opacity="0.3"/><polygon points="6.06 11.06 6.06 7.2 10.8 4.48 6.42 7.48 6.06 11.06" fill="#fff" fill-rule="evenodd" opacity="0.5"/></g></g></g></svg>
