<svg xmlns="http://www.w3.org/2000/svg" xmlns:xlink="http://www.w3.org/1999/xlink" viewBox="0 0 24 24"><defs><clipPath id="clip-path"><rect id="SVGID" width="24" height="24" fill="none"/></clipPath></defs><g style="isolation:isolate"><g id="Layer_1" data-name="Layer 1"><g clip-path="url(#clip-path)"><path d="M19.94,10.65l2.29-2.29a2.62,2.62,0,0,0-3.71-3.71L15,8.22V7.15L8.35,1H1V20.5H5.88V21H9.59l.5-.5h.86a7,7,0,1,0,9-9.85Z" fill="#69768b" opacity="0.4"/><g id="_Group_" data-name="&lt;Group&gt;"><g id="_Group_2" data-name="&lt;Group&gt;"><polygon points="0.75 18.75 0.75 0.75 7.05 0.75 13.2 6.45 13.2 18.75 0.75 18.75" fill="#fff"/><polygon points="0.5 19 0.5 0.5 7.15 0.5 13.45 6.37 13.45 19 0.5 19" fill="#fff"/><path d="M7,1l6,5.59V18.5H1V1H7m.39-1H0V19.5H14V6.15L7.35,0Z" fill="#444546"/><g id="_Group_3" data-name="&lt;Group&gt;"><g id="_Group_4" data-name="&lt;Group&gt;"><g id="_Group_5" data-name="&lt;Group&gt;"><g id="_Group_6" data-name="&lt;Group&gt;"><path id="_Compound_Path_" data-name="&lt;Compound Path&gt;" d="M4.26,8.39h-.7V4.7H2.3V4.1H5.53v.6H4.26Z" fill="#3996d2"/></g><rect id="_Rectangle_" data-name="&lt;Rectangle&gt;" x="6.53" y="4.1" width="5.33" height="0.61" fill="#999ea4"/><rect id="_Rectangle_2" data-name="&lt;Rectangle&gt;" x="6.53" y="5.32" width="5.33" height="0.61" fill="#999ea4"/><rect id="_Rectangle_3" data-name="&lt;Rectangle&gt;" x="6.53" y="6.55" width="5.33" height="0.61" fill="#999ea4"/><rect id="_Rectangle_4" data-name="&lt;Rectangle&gt;" x="6.53" y="7.77" width="5.33" height="0.61" fill="#999ea4"/><rect id="_Rectangle_5" data-name="&lt;Rectangle&gt;" x="2.3" y="8.99" width="9.56" height="0.61" fill="#999ea4"/><rect id="_Rectangle_6" data-name="&lt;Rectangle&gt;" x="2.3" y="10.21" width="6.33" height="0.61" fill="#999ea4"/></g></g></g></g><polygon id="_Path_" data-name="&lt;Path&gt;" points="7.07 7.26 7.07 9.36 12.3 7.26 7.07 7.26" fill="#8a9ca4" opacity="0.15" style="isolation:isolate"/><path d="M8.07,2l4.54,4.23H8.07V2M7.35,0H7.07V7.26H14V6.15L7.35,0Z" fill="#444546"/><polyline points="8.07 2.04 12.61 6.26 8.07 6.26 8.07 2.04" fill="#fff"/><g id="_Group_7" data-name="&lt;Group&gt;"><polygon points="13.95 19.5 0 19.5 0 13.3 13.95 8.74 13.95 19.5" fill="#f6f8f9"/></g></g><polygon points="5.53 19.49 5.53 16.49 15.52 6.5 18.52 9.5 8.53 19.49 5.53 19.49" fill="#eb802d" stroke="#444546" stroke-miterlimit="10"/><rect x="4.74" y="11.26" width="14.13" height="1.62" transform="translate(-5.08 11.88) rotate(-45)" fill="#fff" opacity="0.4" style="mix-blend-mode:screen"/><rect x="16.62" y="4.87" width="2.81" height="4.24" transform="translate(0.33 14.8) rotate(-45)" fill="#bfc3c8" stroke="#444546" stroke-miterlimit="10"/><path d="M20.53,7.49,21,7a2.12,2.12,0,0,0,0-3h0a2.12,2.12,0,0,0-3,0l-.49.49Z" fill="#f4a69e" stroke="#444546" stroke-miterlimit="10"/><polygon points="5.53 16.49 5.53 19.49 8.53 19.49 5.53 16.49" fill="#fffcf2" stroke="#444546" stroke-linejoin="bevel"/><circle cx="16" cy="16" r="6" fill="#dbe0e4"/><path d="M16,10a6,6,0,1,1-6,6,6,6,0,0,1,6-6m0-1a7,7,0,1,0,7,7,7,7,0,0,0-7-7Z" fill="#444546"/><path d="M20,11.53A6,6,0,0,1,11.58,20,6,6,0,1,0,20,11.53Z" fill="#69768b" fill-rule="evenodd" opacity="0.3"/><path d="M10.43,16.42a6,6,0,0,1,10-4.47A6,6,0,1,0,12,20.47,6,6,0,0,1,10.43,16.42Z" fill="#fff" fill-rule="evenodd" opacity="0.5"/><polygon points="13.42 19.52 13.42 12.53 16.65 12.53 18.63 14.5 18.63 19.52 13.42 19.52" fill="#e05143"/><path d="M13.92,19h4.16V14.91H16.22V13.05h-2.3Zm3.88-4.6-1.06-1.06v1.06Z" fill="#fff" fill-rule="evenodd"/></g></g></g></svg>
