<svg xmlns="http://www.w3.org/2000/svg" xmlns:xlink="http://www.w3.org/1999/xlink" viewBox="0 0 24 24"><defs><clipPath id="clip-path"><rect id="SVGID" width="24" height="24" fill="none"/></clipPath></defs><g style="isolation:isolate"><g id="Layer_1" data-name="Layer 1"><g clip-path="url(#clip-path)"><path d="M23.24,10.48l-3-.91q-.09-.24-.2-.48l1.47-2.76.37-.7-.56-.56L19.93,3.67l-.56-.56-.7.37L15.91,5l-.48-.2-.91-3L14.29,1H10.71l-.23.76-.91,3L9.09,5,6.33,3.48l-.7-.37-.56.56L3.67,5.07l-.56.56.37.7L5,9.09q-.11.23-.2.48l-3,.91L1,10.71v3.57l.76.23,3,.91q.09.24.2.48L3.48,18.67l-.37.7.56.56,1.41,1.41.56.56.7-.37L9.09,20l.48.2.91,3,.23.76h3.57l.23-.76.91-3,.48-.2,2.76,1.47.7.37.56-.56,1.41-1.41.56-.56-.37-.7L20,15.91q.11-.23.2-.48l3-.91.76-.23V10.71ZM12.5,15A2.48,2.48,0,1,1,15,12.5,2.48,2.48,0,0,1,12.5,15Z" fill="#69768b" opacity="0.4"/><path d="M18.41,13.56l3.52-1.07v-2L18.41,9.44h0a7.18,7.18,0,0,0-.56-1.36h0l1.73-3.24L18.17,3.42,14.93,5.15h0a7.18,7.18,0,0,0-1.36-.56h0L12.49,1.07h-2L9.44,4.59h0a7.18,7.18,0,0,0-1.36.56h0L4.83,3.42,3.42,4.83,5.15,8.07h0a7.18,7.18,0,0,0-.56,1.36h0L1.07,10.51v2l3.52,1.07h0a7.18,7.18,0,0,0,.56,1.36h0L3.42,18.17l1.41,1.41,3.24-1.73h0a7.18,7.18,0,0,0,1.36.56h0l1.07,3.52h2l1.07-3.52h0a7.18,7.18,0,0,0,1.36-.56h0l3.24,1.73,1.41-1.41-1.73-3.24h0a7.18,7.18,0,0,0,.56-1.36ZM11.5,15.05a3.55,3.55,0,1,1,3.55-3.55A3.56,3.56,0,0,1,11.5,15.05Z" fill="#b4bbc5"/><path d="M13.07,4.09h0l.39.14-1-3.16h-.34Z" fill="#b4bbc5"/><polygon points="18.63 3.88 18.17 3.42 18.17 3.42 18.63 3.88" fill="#b4bbc5"/><path d="M8.77,13.74a3.51,3.51,0,0,1-.82-2.24A3.56,3.56,0,0,1,11.5,7.95a3.51,3.51,0,0,1,2.24.82,3.53,3.53,0,1,0-5,5Z" fill="#b4bbc5"/><path d="M19.58,4.83l-.5-.5L17.35,7.58h0a7.18,7.18,0,0,1,.56,1.36h0l.35.11a7.07,7.07,0,0,0-.43-1h0Z" fill="#b4bbc5"/><path d="M4.09,13.07h0l-3-.92v.34l3.16,1C4.19,13.33,4.13,13.2,4.09,13.07Z" fill="#b4bbc5"/><path d="M18.41,13.56l3.52-1.07v-2l-.5-.15V12l-3.52,1.07h0a7.18,7.18,0,0,1-.56,1.36h0l1.73,3.24-1.41,1.41-3.24-1.73h0a7.18,7.18,0,0,1-1.36.56h0L12,21.43H10.36l.15.5h2l1.07-3.52h0a7.18,7.18,0,0,0,1.36-.56h0l3.24,1.73,1.41-1.41-1.73-3.24h0a7.17,7.17,0,0,0,.56-1.36Z" fill="#69768b" opacity="0.4"/><path d="M8.94,17.92h0a7.18,7.18,0,0,1-1.36-.56h0L4.33,19.08l-.21-.21.7.7,3.24-1.73h0a7.08,7.08,0,0,0,1,.43Z" fill="#b4bbc5"/><path d="M12.49,1.07l1.07,3.52h0a7.18,7.18,0,0,1,1.36.56h0l3.24-1.73,1.41,1.41L17.85,8.07h0a7.18,7.18,0,0,1,.56,1.36h0l3.52,1.07v2l-3.52,1.07h0a7.18,7.18,0,0,1-.56,1.36h0l1.73,3.24-1.41,1.41-3.24-1.73h0a7.18,7.18,0,0,1-1.36.56h0l-1.07,3.52h-2L9.44,18.41h0a7.18,7.18,0,0,1-1.36-.56h0L4.83,19.58,3.42,18.17l1.73-3.24h0a7.18,7.18,0,0,1-.56-1.36h0L1.07,12.49v-2L4.59,9.44h0a7.18,7.18,0,0,1,.56-1.36h0L3.42,4.83,4.83,3.42,8.07,5.15h0a7.18,7.18,0,0,1,1.36-.56h0l1.07-3.52h2m-1,14A3.55,3.55,0,1,0,7.95,11.5a3.56,3.56,0,0,0,3.55,3.55M13.29,0H9.71L9.48.76l-.91,3L8.09,4,5.33,2.48l-.7-.37-.56.56L2.67,4.07l-.56.56.37.7L4,8.09q-.11.23-.2.48l-3,.91L0,9.71v3.57l.76.23,3,.91q.09.24.2.48L2.48,17.67l-.37.7.56.56,1.41,1.41.56.56.7-.37L8.09,19l.48.2.91,3,.23.76h3.57l.23-.76.91-3,.48-.2,2.76,1.47.7.37.56-.56,1.41-1.41.56-.56-.37-.7L19,14.91q.11-.23.2-.48l3-.91.76-.23V9.71l-.76-.23-3-.91q-.09-.24-.2-.48l1.47-2.76.37-.7-.56-.56L18.93,2.67l-.56-.56-.7.37L14.91,4l-.48-.2-.91-3L13.29,0ZM11.5,14A2.48,2.48,0,1,1,14,11.5,2.48,2.48,0,0,1,11.5,14Z" fill="#444546"/><path d="M18.41,9.44h0a7.18,7.18,0,0,0-.56-1.36h0l1.73-3.24-.28-.28L14.39,9.46a3.52,3.52,0,0,1,.66,2,3.56,3.56,0,0,1-3.55,3.55,3.52,3.52,0,0,1-2-.66L4.55,19.3l.28.28,3.24-1.73h0a7.18,7.18,0,0,0,1.36.56h0l.84,2.74L21.16,10.27Z" fill="#fff" opacity="0.5" style="mix-blend-mode:overlay"/><g opacity="0.5"><path d="M1.58,11,5.09,9.94h0a7.19,7.19,0,0,1,.56-1.36h0L3.93,5.33,5.33,3.93,8.58,5.66h0A7.17,7.17,0,0,1,9.94,5.1h0L11,1.58h1.64l-.15-.5h-2L9.44,4.59h0a7.18,7.18,0,0,0-1.36.56h0L4.83,3.42,3.42,4.83,5.15,8.07h0a7.18,7.18,0,0,0-.56,1.36h0L1.07,10.51v2l.5.15Z" fill="#fff" opacity="0.5"/><path d="M14.07,5.09h0a7.17,7.17,0,0,1,1.36.56h0l3.24-1.73.9.9L18.17,3.42,14.93,5.15h0a7.07,7.07,0,0,0-1-.42Z" fill="#fff"/><path d="M15.56,12a3.53,3.53,0,0,0-1.32-2.74,3.51,3.51,0,0,1,.81,2.23,3.56,3.56,0,0,1-3.55,3.55,3.51,3.51,0,0,1-2.23-.81A3.53,3.53,0,0,0,15.56,12Z" fill="#fff"/><path d="M18.91,9.94h0l3,.92v-.35l-3.16-1C18.82,9.68,18.87,9.81,18.91,9.94Z" fill="#fff"/><path d="M9.94,18.92h0l-.4-.14,1,3.16h.35Z" fill="#fff"/><path d="M3.42,18.17l.5.5,1.73-3.24h0a7.18,7.18,0,0,1-.56-1.36h0L4.73,14a7.06,7.06,0,0,0,.42,1h0Z" fill="#fff"/><polygon points="4.32 19.07 4.83 19.58 4.83 19.58 4.32 19.07" fill="#fff"/></g><path d="M12.26,8,8,12.26a3.56,3.56,0,0,0,1.42,2.13l4.93-4.93A3.56,3.56,0,0,0,12.26,8Z" fill="none"/><path d="M7.95,11.5A3.56,3.56,0,0,1,11.5,7.95a3.51,3.51,0,0,1,.76.09l3.13-3.13-.46.24h0a7.18,7.18,0,0,0-1.36-.56h0l-.83-2.74L1.85,12.73l2.74.83h0a7.17,7.17,0,0,0,.56,1.36h0l-.24.46L8,12.26A3.51,3.51,0,0,1,7.95,11.5Z" fill="#fff" opacity="0.3" style="mix-blend-mode:overlay"/></g></g></g></svg>
