<svg xmlns="http://www.w3.org/2000/svg" xmlns:xlink="http://www.w3.org/1999/xlink" viewBox="0 0 24 24"><defs><clipPath id="clip-path"><rect id="SVGID" width="24" height="24" fill="none"/></clipPath></defs><g style="isolation:isolate"><g id="Layer_1" data-name="Layer 1"><g clip-path="url(#clip-path)"><polygon points="12.54 0.42 12.2 0.54 9.35 1.55 9.02 1.16 8.29 2.07 7.17 3.44 7.12 3.51 7.07 3.59 5.96 5.63 5.8 5.92 5.85 6.25 6.05 7.38 5.78 7.64 5.85 8.12 6.24 10.78 6.28 11.09 6.49 11.3 6.49 11.41 6.59 11.62 8.19 14.8 8.09 14.86 7.63 15.13 7.63 15.68 7.63 16.14 3.15 17.73 2.68 17.89 2.54 18.37 1.3 22.78 0.96 24 2.23 24 22.8 24 24.07 24 23.73 22.78 22.5 18.37 22.36 17.89 21.89 17.73 17.41 16.14 17.41 15.68 17.41 15.13 16.95 14.86 16.85 14.8 18.45 11.62 18.55 11.41 18.55 11.4 18.64 11.31 18.87 11.07 18.91 10.74 19.19 8.09 19.24 7.63 19 7.38 19.19 6.28 19.23 5.99 19.12 5.73 17.83 2.78 17.67 2.42 17.3 2.27 12.87 0.55 12.54 0.42 12.54 0.42" fill="#69768b" opacity="0.4"/><polygon points="20.61 17.67 14.71 15.59 11.56 18.74 8.41 15.59 2.51 17.67 0.04 23.04 23.07 23.04 20.61 17.67" fill="#efc519"/><polygon points="8.41 11.75 8.41 15.59 11.56 18.74 14.71 15.59 14.71 11.75 8.41 11.75" fill="#efbb8a"/><polygon points="8.41 11.75 8.41 15.59 11.56 18.74 14.71 15.59 14.71 11.75 8.41 11.75" fill="#ce996e" opacity="0.6"/><polygon points="15.05 10.42 16.26 10.42 16.99 9.68 17.28 7.02 16.47 6.23 15.05 10.42" fill="#ce996e"/><polygon points="8.07 10.42 6.96 10.42 6.22 9.68 5.84 7.02 6.65 6.23 8.07 10.42" fill="#ce996e"/><polygon points="11.56 16.56 9.03 15.29 6.49 10.22 6.49 5.16 7.76 2.63 11.56 1.36 15.36 2.63 16.63 5.16 16.63 10.22 14.09 15.29 11.56 16.56" fill="#efbb8a"/><polygon points="8.81 4.47 10.13 6.62 12.49 6.75 14.79 7.02 15.89 8.3 15.71 5.23 11.15 3.82 8.81 4.47" fill="#ce996e" opacity="0.6"/><polygon points="8.81 4.47 10.1 5.82 12.25 5.82 14.77 6.23 15.82 9 16.63 8.96 17.28 5.15 15.99 2.21 11.56 0.49 8.52 1.56 8.81 4.47" fill="#444546"/><polygon points="8.81 4.47 8.6 2.35 8.07 1.71 6.96 3.09 5.84 5.13 6.49 8.96 7.33 8.96 7.33 6.4 8.81 4.47" fill="#444546"/><polygon points="11.56 18.74 9.41 21.77 7.63 17.45 7.54 15.89 11.56 18.74" fill="#efc519"/><polygon points="11.56 18.74 13.7 21.77 15.49 17.45 15.57 15.89 11.56 18.74" fill="#efc519"/><polygon points="8.41 15.59 8.41 14.25 7.63 14.72 7.63 17.45 8.45 21.46 11.56 18.74 8.41 15.59" fill="#fcf1c5"/><polygon points="14.71 15.59 14.71 14.25 15.49 14.72 15.49 17.45 14.66 21.46 11.56 18.74 14.71 15.59" fill="#fcf1c5"/><circle cx="11.56" cy="20.63" r="0.46" fill="#fdf7e3"/><circle cx="11.56" cy="22.58" r="0.46" fill="#f4a69e"/><polygon points="2.51 17.67 0.04 23.04 3.38 23.04 2.51 17.67" fill="#fcf1c5"/><polygon points="20.61 17.67 23.07 23.04 19.74 23.04 20.61 17.67" fill="#fcf1c5"/><polygon points="11.56 17.75 8.41 15.59 11.56 18.74 14.71 15.59 11.56 17.75" fill="#444546" opacity="0.6"/><polygon points="9.11 1.67 9.36 4.03 10.48 5.45 12.48 5.45 15.38 5.96 14.02 5.21 14.92 4.82 11.63 4.62 13.43 4.16 10.78 3.97 12.65 3.5 10.24 3.33 12.24 2.77 10.19 2.67 12.46 2.04 9.71 2.04 11.53 1.46 10.27 1.67 11.43 0.8 9.11 1.67" fill="#999"/><polygon points="6.86 8.47 7.07 5.61 8.36 4.46 7.14 4.92 8.68 3.27 7.74 3.46 8.21 2.17 7.33 3.28 6.34 5.17 6.86 8.47" fill="#999"/><path d="M11.56.49,16,2.21l1.29,2.95L17,6.75l.27.27L17,9.68l-.37.37v.17l-1.91,3.83v.2l.78.47v1.14l.08,0,5,1.78,1.23,4.41H1.27l1.24-4.41,5-1.78.08,0V14.72l.78-.47v-.2L6.49,10.23V10l-.27-.27L5.84,7l.28-.27L5.84,5.13,7,3.09,8.07,1.71l.53.63-.08-.78,3-1.08m0-1-.34.12L8.39.59,8.06.2l-.74.91L6.21,2.48l-.06.07,0,.08L5,4.67,4.84,5l.06.33.19,1.13-.27.26.07.48.38,2.65,0,.31.21.22v.11l.1.2,1.59,3.18-.09.06-.47.28v1L2.19,16.77l-.47.17-.13.48L.34,21.82,0,23H23.11l-.34-1.22-1.23-4.41-.13-.48-.47-.17-4.48-1.59v-1L16,13.89l-.09-.06,1.59-3.18.1-.2h0l.09-.09.23-.24,0-.33.29-2.65,0-.46L18,6.42l.19-1.11,0-.28-.11-.26L16.87,1.82l-.16-.37-.37-.14L11.91-.41l-.33-.13Z" fill="#444546"/></g></g></g></svg>
