<svg xmlns="http://www.w3.org/2000/svg" xmlns:xlink="http://www.w3.org/1999/xlink" viewBox="0 0 24 24"><defs><clipPath id="clip-path"><rect id="SVGID" width="24" height="24" fill="none"/></clipPath></defs><g style="isolation:isolate"><g id="Layer_1" data-name="Layer 1"><g clip-path="url(#clip-path)"><path d="M23,15.06H20.5v-3.7H13.23V8.94a4,4,0,1,0-1,0v2.43h-7v4.37l-.37.63-3,5.2L1,23.06h9.46l-.87-1.5-3-5.2-.37-.63V12.37H19.5v2.7H16v8h8v-8Z" fill="#69768b" opacity="0.4"/><circle cx="11.73" cy="3.99" r="3" fill="#e84d3d"/><path d="M11.73,1a3,3,0,1,1-3,3,3,3,0,0,1,3-3m0-1a4,4,0,1,0,4,4,4,4,0,0,0-4-4Z" fill="#444546"/><path d="M9.24,4.49a3,3,0,0,1,4.85-2.35A3,3,0,1,0,9.89,6.34,3,3,0,0,1,9.24,4.49Z" fill="#fff" opacity="0.5"/><g opacity="0.2"><path d="M14.23,3.48A3,3,0,0,1,9.38,5.83a3,3,0,1,0,4.19-4.19A3,3,0,0,1,14.23,3.48Z"/></g><rect x="11.23" y="6.99" width="1" height="3.88" fill="#444546"/><polygon points="19.5 16.87 18.5 16.87 18.5 11.37 5.23 11.37 5.23 16.87 4.23 16.87 4.23 10.37 19.5 10.37 19.5 16.87" fill="#444546"/><polygon points="4.73 15.87 1.73 21.06 7.73 21.06 4.73 15.87" fill="#26b298"/><path d="M4.73,15.87l3,5.2h-6l3-5.2m0-2-.87,1.5-3,5.2L0,22.06H9.46l-.87-1.5-3-5.2-.87-1.5Z" fill="#444546"/><rect x="16" y="15.06" width="6" height="6" fill="#3b97d3"/><path d="M22,15.06v6H16v-6h6m1-1H15v8h8v-8Z" fill="#444546"/><polyline points="16 21.06 16.5 15.56 22 15.06 16 15.06 16 21.08" fill="#fff" opacity="0.5"/><polyline points="22 15.08 21.5 20.58 16 21.08 22 21.08 22 15.06" opacity="0.2"/><polygon points="4.73 15.87 1.73 21.06 2.24 21.06 5.02 16.37 4.73 15.87" fill="#fff" opacity="0.5"/><g opacity="0.2"><polygon points="1.73 21.06 7.73 21.06 4.73 15.87 6.71 20.46 1.73 21.06"/></g></g></g></g></svg>
